<svg xmlns="http://www.w3.org/2000/svg" viewBox="0 0 512 512"><defs><linearGradient id="g" x2="1" y2="1"><stop stop-color="#1976ff"/><stop offset="1" stop-color="#8e44ef"/></linearGradient></defs><rect width="512" height="512" rx="112" fill="url(#g)"/><rect x="116" y="55" width="280" height="402" rx="65" fill="#111"/><rect x="135" y="76" width="242" height="360" rx="49" fill="#f5f5f7"/><rect x="210" y="89" width="92" height="27" rx="14" fill="#050505"/><path d="M270 200c-18-1-34 10-43 10-10 0-24-10-40-9-21 0-41 13-52 33-22 39-6 97 16 128 11 15 23 32 39 31 15-1 21-10 40-10 18 0 24 10 40 9 17 0 27-15 37-31 12-18 17-36 17-37-1 0-33-13-33-50 0-31 25-46 27-47-14-21-37-24-48-25zm-11-38c9-11 15-27 13-42-13 1-29 9-38 20-8 9-16 25-13 40 14 1 29-7 38-18z" fill="#111"/></svg>
